<svg width="384" height="575" viewBox="0 0 384 575" fill="none" xmlns="http://www.w3.org/2000/svg">
<path d="M367.005 120.124V81.0654H372.901L373.638 120.124C378.25 125.885 378.175 129.103 373.638 134.863L381.008 159.92H358.899L366.269 134.863C361.814 128.524 361.678 125.265 367.005 120.124Z" fill="#2279AB"/>
<path d="M117.176 156.235C168.026 121.598 242.459 120.124 297.731 156.235V116.439L383.955 78.8545L208.559 0L31.689 79.5915L117.176 117.176V156.235Z" fill="#2279AB"/>
<path d="M364.794 181.292H296.994L296.257 470.179C279.307 526.925 212.244 518.819 206.348 468.706L139.285 470.179C148.129 614.623 347.844 601.358 364.794 473.864V181.292Z" fill="#F5FF64"/>
<path d="M145.181 151.076C187.924 142.97 227.72 142.233 254.251 151.076L281.519 210.033V389.851H113.491L75.1699 477.549H0L145.181 151.076ZM147.392 320.577H253.514L200.453 199.716L147.392 320.577Z" fill="#2279AB"/>
</svg>
