<svg width="161" height="54" viewBox="0 0 161 54" fill="none" xmlns="http://www.w3.org/2000/svg">
<path d="M34.4105 11.263V7.60077H34.9633L35.0323 11.263C35.4648 11.8031 35.4578 12.1048 35.0323 12.6449L35.7233 14.9942H33.6504L34.3414 12.6449C33.9237 12.0505 33.9109 11.7449 34.4105 11.263Z" fill="#2279AB"/>
<path d="M10.9866 14.6488C15.7543 11.4012 22.7332 11.263 27.9155 14.6488V10.9175L36 7.39348L19.5547 0L2.97119 7.46258L10.9866 10.9866V14.6488Z" fill="#2279AB"/>
<path d="M34.2035 16.9981H27.8465L27.7774 44.0845C26.1882 49.405 19.9003 48.645 19.3475 43.9463L13.0596 44.0845C13.8887 57.6277 32.6143 56.3839 34.2035 44.43V16.9981Z" fill="#F5FF64"/>
<path d="M13.6123 14.1655C17.62 13.4055 21.3513 13.3364 23.8389 14.1655L26.3955 19.6929V36.5532H10.6406L7.04785 44.7759H0L13.6123 14.1655ZM13.8193 30.0581H23.7695L18.7949 18.7251L13.8193 30.0581Z" fill="#2279AB"/>
<path d="M74.5264 34.6514C74.5263 36.2802 74.0621 37.5767 73.1338 38.54C72.2055 39.5031 70.892 39.9843 69.1934 39.9844C68.5628 39.9844 67.9579 39.9145 67.3799 39.7744C66.8021 39.6518 66.3119 39.4589 65.9092 39.1963L67.0127 36.2275C67.4855 36.5602 68.0632 36.7265 68.7461 36.7266C69.2541 36.7266 69.6573 36.5515 69.9551 36.2012C70.2702 35.8684 70.4277 35.3606 70.4277 34.6777V20.542H74.5264V34.6514ZM84.002 20.332C86.1564 20.332 87.8294 20.8396 89.0205 21.8555C90.2116 22.8714 90.8066 24.4569 90.8066 26.6113V34.6777H86.9707V32.9189C86.6621 33.4384 86.2424 33.8582 85.71 34.1777C84.9218 34.6507 83.9057 34.8877 82.6621 34.8877C81.5586 34.8877 80.6124 34.7038 79.8242 34.3359C79.0362 33.9507 78.4321 33.434 78.0117 32.7861C77.5914 32.1382 77.3809 31.411 77.3809 30.6055C77.3809 29.7648 77.5826 29.0289 77.9854 28.3984C78.4057 27.7679 79.0627 27.2771 79.9561 26.9268C80.8493 26.559 82.014 26.375 83.4502 26.375H86.708C86.708 25.4992 86.4365 24.8156 85.8936 24.3252C85.3681 23.8349 84.5535 23.5898 83.4502 23.5898C82.697 23.5898 81.9524 23.7128 81.2168 23.958C80.4988 24.1857 79.8858 24.5006 79.3779 24.9033L77.9062 22.04C78.6769 21.497 79.6054 21.0761 80.6914 20.7783C81.7774 20.4806 82.881 20.332 84.002 20.332ZM133.373 29.79C134.091 29.79 134.696 30.0271 135.187 30.5C135.677 30.9553 135.922 31.5596 135.922 32.3125C135.922 33.0654 135.677 33.6874 135.187 34.1777C134.696 34.6507 134.091 34.8877 133.373 34.8877C132.672 34.8877 132.068 34.6506 131.561 34.1777C131.07 33.6873 130.824 33.0656 130.824 32.3125C130.824 31.5595 131.07 30.9554 131.561 30.5C132.068 30.0272 132.673 29.7901 133.373 29.79ZM161 34.6777H157.085V33.043C156.731 33.47 156.321 33.823 155.851 34.0996C154.975 34.6251 153.915 34.8877 152.671 34.8877C151.34 34.8876 150.14 34.5896 149.071 33.9941C148.003 33.3811 147.154 32.5312 146.523 31.4453C145.91 30.3594 145.604 29.0806 145.604 27.6094C145.604 26.1207 145.91 24.8329 146.523 23.7471C147.154 22.6615 148.003 21.821 149.071 21.2256C150.14 20.6301 151.34 20.3321 152.671 20.332C153.862 20.332 154.905 20.5946 155.798 21.1201C156.208 21.3617 156.576 21.6613 156.901 22.0176V15.1826H161V34.6777ZM68.625 34.6777H64.1582L62.5254 30.7363H54.001L52.3613 34.6777H48L56.1973 16.2861H60.4014L68.625 34.6777ZM103.292 24.1152C103.117 24.0977 102.959 24.0889 102.819 24.0889C102.679 24.0714 102.53 24.0625 102.372 24.0625C101.251 24.0625 100.34 24.3871 99.6396 25.0352C98.9566 25.6657 98.6152 26.6553 98.6152 28.0039V34.6777H94.5166V20.542H98.4316V22.3994C98.8179 21.8726 99.3075 21.4456 99.9023 21.1201C100.831 20.5946 101.961 20.332 103.292 20.332V24.1152ZM109.854 34.6777H105.755V20.542H109.854V34.6777ZM122.249 20.332C123.37 20.3321 124.368 20.5593 125.244 21.0146C126.137 21.4525 126.838 22.1361 127.346 23.0645C127.854 23.9752 128.107 25.1487 128.107 26.585V34.6777H124.009V27.2158C124.009 26.0773 123.755 25.2364 123.247 24.6934C122.757 24.1505 122.056 23.879 121.146 23.8789C120.497 23.8789 119.91 24.0186 119.385 24.2988C118.877 24.5615 118.475 24.9738 118.177 25.5342C117.897 26.0947 117.756 26.8127 117.756 27.6885V34.6777H113.657V20.542H117.572V22.2246C117.978 21.772 118.458 21.3937 119.017 21.0938C119.962 20.5858 121.04 20.332 122.249 20.332ZM142.798 34.6777H138.699V20.542H142.798V34.6777ZM83.8965 28.7656C82.9337 28.7657 82.2683 28.9233 81.9004 29.2383C81.5501 29.5535 81.375 29.9481 81.375 30.4209C81.375 30.9464 81.5757 31.3673 81.9785 31.6826C82.3989 31.9804 82.9685 32.1289 83.6865 32.1289C84.3694 32.1289 84.9825 31.9713 85.5254 31.6562C86.0684 31.3235 86.4628 30.8415 86.708 30.2109V28.7656H83.8965ZM153.381 23.6953C152.698 23.6953 152.084 23.8527 151.541 24.168C150.998 24.4832 150.56 24.9299 150.228 25.5078C149.912 26.0857 149.755 26.7863 149.755 27.6094C149.755 28.4151 149.912 29.1164 150.228 29.7119C150.56 30.2898 150.998 30.7365 151.541 31.0518C152.084 31.367 152.698 31.5244 153.381 31.5244C154.046 31.5244 154.65 31.3669 155.193 31.0518C155.736 30.7365 156.165 30.2898 156.48 29.7119C156.813 29.1164 156.98 28.4151 156.98 27.6094C156.98 26.7863 156.813 26.0857 156.48 25.5078C156.165 24.9299 155.736 24.4832 155.193 24.168C154.65 23.8528 154.046 23.6953 153.381 23.6953ZM55.3447 27.5049H61.1875L58.2715 20.4658L55.3447 27.5049ZM78.123 17.3379L76.4873 18.0508V18.5918C76.64 18.7392 76.6356 18.8327 76.5078 19.0146L76.7197 19.7344H76.085L76.2969 19.0146C76.1666 18.8492 76.1644 18.7572 76.2969 18.5918L76.3047 18.1299L75.2969 18.5703V19.874C73.4851 18.6904 71.0447 18.7387 69.3779 19.874V18.5938L66.5762 17.3623L72.374 14.7529L78.123 17.3379ZM107.804 14C108.557 14 109.171 14.2105 109.644 14.6309C110.116 15.0337 110.353 15.5591 110.353 16.207C110.353 16.8901 110.116 17.4597 109.644 17.915C109.188 18.3529 108.574 18.5713 107.804 18.5713C107.051 18.5712 106.438 18.3528 105.965 17.915C105.492 17.4772 105.256 16.9341 105.256 16.2861C105.256 15.6381 105.492 15.0951 105.965 14.6572C106.438 14.2194 107.051 14 107.804 14ZM140.749 14C141.502 14.0001 142.115 14.2105 142.588 14.6309C143.061 15.0337 143.297 15.559 143.297 16.207C143.297 16.8901 143.061 17.4596 142.588 17.915C142.133 18.3528 141.52 18.5712 140.749 18.5713C139.996 18.5713 139.382 18.3529 138.909 17.915C138.436 17.4772 138.2 16.934 138.2 16.2861C138.2 15.6382 138.437 15.0951 138.909 14.6572C139.382 14.2193 139.996 14 140.749 14Z" fill="white"/>
</svg>
