<svg width="358" height="178" viewBox="0 0 358 178" fill="none" xmlns="http://www.w3.org/2000/svg">
<mask id="path-1-outside-1_14_222" maskUnits="userSpaceOnUse" x="6" y="23" width="292" height="86" fill="black">
<rect fill="white" x="6" y="23" width="292" height="86"/>
<path d="M39.6746 105.075C34.3704 105.075 29.1738 104.323 24.0847 102.817C19.0672 101.24 14.8382 99.0901 11.3977 96.3663L17.3111 85.5071C20.0349 87.7292 23.3321 89.5211 27.2027 90.883C31.1449 92.2449 35.2306 92.9258 39.4595 92.9258C44.4053 92.9258 48.2759 91.8865 51.0713 89.8078C53.9385 87.7292 55.372 84.9337 55.372 81.4215C55.372 79.0561 54.7627 76.9775 53.5442 75.1856C52.3974 73.3936 50.3187 72.0317 47.3083 71.0999C44.3695 70.1681 40.3197 69.7022 35.1589 69.7022H16.9886L20.8592 28.7384H65.0485V40.4577H26.02L33.3311 33.7917L30.4282 64.4339L23.117 57.8754H38.2769C45.7313 57.8754 51.7164 58.8789 56.2321 60.8858C60.8195 62.8211 64.1525 65.5449 66.2312 69.0571C68.3815 72.4976 69.4567 76.4399 69.4567 80.8839C69.4567 85.2563 68.3815 89.2702 66.2312 92.9258C64.0808 96.5814 60.7837 99.5201 56.3397 101.742C51.9673 103.964 46.4123 105.075 39.6746 105.075ZM115.365 105.075C109.415 105.075 104.04 103.57 99.2371 100.559C94.5064 97.549 90.7791 93.1767 88.0554 87.4424C85.3316 81.6365 83.9697 74.6121 83.9697 66.3692C83.9697 58.1263 85.3316 51.1377 88.0554 45.4035C90.7791 39.5976 94.5064 35.1894 99.2371 32.1789C104.04 29.1684 109.415 27.6632 115.365 27.6632C121.386 27.6632 126.761 29.1684 131.492 32.1789C136.223 35.1894 139.95 39.5976 142.674 45.4035C145.469 51.1377 146.867 58.1263 146.867 66.3692C146.867 74.6121 145.469 81.6365 142.674 87.4424C139.95 93.1767 136.223 97.549 131.492 100.559C126.761 103.57 121.386 105.075 115.365 105.075ZM115.365 92.9258C118.877 92.9258 121.923 91.994 124.503 90.1304C127.084 88.1951 129.091 85.2563 130.524 81.314C132.03 77.3717 132.782 72.3901 132.782 66.3692C132.782 60.2766 132.03 55.295 130.524 51.4244C129.091 47.4821 127.084 44.5792 124.503 42.7155C121.923 40.7802 118.877 39.8126 115.365 39.8126C111.996 39.8126 108.985 40.7802 106.333 42.7155C103.753 44.5792 101.71 47.4821 100.205 51.4244C98.7712 55.295 98.0544 60.2766 98.0544 66.3692C98.0544 72.3901 98.7712 77.3717 100.205 81.314C101.71 85.2563 103.753 88.1951 106.333 90.1304C108.985 91.994 111.996 92.9258 115.365 92.9258ZM194.158 105.075C188.209 105.075 182.833 103.57 178.031 100.559C173.3 97.549 169.573 93.1767 166.849 87.4424C164.125 81.6365 162.763 74.6121 162.763 66.3692C162.763 58.1263 164.125 51.1377 166.849 45.4035C169.573 39.5976 173.3 35.1894 178.031 32.1789C182.833 29.1684 188.209 27.6632 194.158 27.6632C200.179 27.6632 205.555 29.1684 210.286 32.1789C215.016 35.1894 218.744 39.5976 221.467 45.4035C224.263 51.1377 225.661 58.1263 225.661 66.3692C225.661 74.6121 224.263 81.6365 221.467 87.4424C218.744 93.1767 215.016 97.549 210.286 100.559C205.555 103.57 200.179 105.075 194.158 105.075ZM194.158 92.9258C197.67 92.9258 200.717 91.994 203.297 90.1304C205.878 88.1951 207.885 85.2563 209.318 81.314C210.823 77.3717 211.576 72.3901 211.576 66.3692C211.576 60.2766 210.823 55.295 209.318 51.4244C207.885 47.4821 205.878 44.5792 203.297 42.7155C200.717 40.7802 197.67 39.8126 194.158 39.8126C190.789 39.8126 187.779 40.7802 185.127 42.7155C182.546 44.5792 180.504 47.4821 178.998 51.4244C177.565 55.295 176.848 60.2766 176.848 66.3692C176.848 72.3901 177.565 77.3717 178.998 81.314C180.504 85.2563 182.546 88.1951 185.127 90.1304C187.779 91.994 190.789 92.9258 194.158 92.9258ZM263.37 90.5604V42.178H274.875V90.5604H263.37ZM244.34 71.745V60.9934H293.905V71.745H244.34Z"/>
</mask>
<path d="M24.0847 102.817L22.9731 106.354L23.003 106.364L23.0331 106.373L24.0847 102.817ZM11.3977 96.3663L8.14165 94.5932L6.64846 97.3352L9.09643 99.2732L11.3977 96.3663ZM17.3111 85.5071L19.6548 82.6343L16.1922 79.8095L14.0551 83.734L17.3111 85.5071ZM27.2027 90.883L25.9721 94.3803L25.9821 94.3839L25.9921 94.3873L27.2027 90.883ZM51.0713 89.8078L48.8951 86.8061L48.877 86.8193L48.859 86.8326L51.0713 89.8078ZM53.5442 75.1856L50.4215 77.1841L50.4493 77.2276L50.4784 77.2703L53.5442 75.1856ZM47.3083 71.0999L46.1877 74.6341L46.1998 74.6379L46.212 74.6417L47.3083 71.0999ZM16.9886 69.7022L13.2975 69.3534L12.9142 73.4098H16.9886V69.7022ZM20.8592 28.7384V25.0308H17.4854L17.1681 28.3896L20.8592 28.7384ZM65.0485 28.7384H68.756V25.0308H65.0485V28.7384ZM65.0485 40.4577V44.1652H68.756V40.4577H65.0485ZM26.02 40.4577L23.522 37.718L16.4508 44.1652H26.02V40.4577ZM33.3311 33.7917L37.0221 34.1413L37.9276 24.5834L30.8331 31.0519L33.3311 33.7917ZM30.4282 64.4339L27.9524 67.1937L33.4257 72.1036L34.1192 64.7836L30.4282 64.4339ZM23.117 57.8754V54.1678H13.4318L20.6413 60.6352L23.117 57.8754ZM56.2321 60.8858L54.7264 64.2738L54.7586 64.2881L54.791 64.3018L56.2321 60.8858ZM66.2312 69.0571L63.0406 70.9454L63.0634 70.9841L63.0872 71.0221L66.2312 69.0571ZM66.2312 92.9258L63.0355 91.046H63.0355L66.2312 92.9258ZM56.3397 101.742L54.6816 98.426L54.6708 98.4314L54.66 98.4369L56.3397 101.742ZM39.6746 105.075V101.368C34.7266 101.368 29.8842 100.666 25.1362 99.262L24.0847 102.817L23.0331 106.373C28.4634 107.979 34.0142 108.783 39.6746 108.783V105.075ZM24.0847 102.817L25.1963 99.2803C20.527 97.8128 16.722 95.8527 13.699 93.4594L11.3977 96.3663L9.09643 99.2732C12.9545 102.327 17.6075 104.668 22.9731 106.354L24.0847 102.817ZM11.3977 96.3663L14.6538 98.1394L20.5672 87.2803L17.3111 85.5071L14.0551 83.734L8.14165 94.5932L11.3977 96.3663ZM17.3111 85.5071L14.9675 88.38C18.0738 90.9141 21.7635 92.8995 25.9721 94.3803L27.2027 90.883L28.4332 87.3856C24.9006 86.1427 21.996 84.5442 19.6548 82.6343L17.3111 85.5071ZM27.2027 90.883L25.9921 94.3873C30.3293 95.8856 34.8244 96.6333 39.4595 96.6333V92.9258V89.2182C35.6367 89.2182 31.9606 88.6041 28.4132 87.3786L27.2027 90.883ZM39.4595 92.9258V96.6333C44.8779 96.6333 49.6299 95.4999 53.2836 92.783L51.0713 89.8078L48.859 86.8326C46.922 88.273 43.9327 89.2182 39.4595 89.2182V92.9258ZM51.0713 89.8078L53.2476 92.8095C57.0671 90.0403 59.0796 86.1335 59.0796 81.4215H55.372H51.6645C51.6645 83.7339 50.8098 85.418 48.8951 86.8061L51.0713 89.8078ZM55.372 81.4215H59.0796C59.0796 78.3838 58.285 75.5639 56.6101 73.1008L53.5442 75.1856L50.4784 77.2703C51.2404 78.3911 51.6645 79.7285 51.6645 81.4215H55.372ZM53.5442 75.1856L56.667 73.187C54.8667 70.3741 51.8612 68.6281 48.4045 67.5582L47.3083 71.0999L46.212 74.6417C48.7762 75.4354 49.928 76.4131 50.4215 77.1841L53.5442 75.1856ZM47.3083 71.0999L48.4288 67.5658C44.9652 66.4675 40.4804 65.9947 35.1589 65.9947V69.7022V73.4098C40.159 73.4098 43.7737 73.8687 46.1877 74.6341L47.3083 71.0999ZM35.1589 69.7022V65.9947H16.9886V69.7022V73.4098H35.1589V69.7022ZM16.9886 69.7022L20.6797 70.051L24.5503 29.0871L20.8592 28.7384L17.1681 28.3896L13.2975 69.3534L16.9886 69.7022ZM20.8592 28.7384V32.4459H65.0485V28.7384V25.0308H20.8592V28.7384ZM65.0485 28.7384H61.341V40.4577H65.0485H68.756V28.7384H65.0485ZM65.0485 40.4577V36.7501H26.02V40.4577V44.1652H65.0485V40.4577ZM26.02 40.4577L28.5179 43.1974L35.8291 36.5314L33.3311 33.7917L30.8331 31.0519L23.522 37.718L26.02 40.4577ZM33.3311 33.7917L29.6401 33.442L26.7371 64.0842L30.4282 64.4339L34.1192 64.7836L37.0221 34.1413L33.3311 33.7917ZM30.4282 64.4339L32.9039 61.6741L25.5928 55.1155L23.117 57.8754L20.6413 60.6352L27.9524 67.1937L30.4282 64.4339ZM23.117 57.8754V61.5829H38.2769V57.8754V54.1678H23.117V57.8754ZM38.2769 57.8754V61.5829C45.4518 61.5829 50.8631 62.5568 54.7264 64.2738L56.2321 60.8858L57.7379 57.4978C52.5698 55.2009 46.0109 54.1678 38.2769 54.1678V57.8754ZM56.2321 60.8858L54.791 64.3018C58.8111 65.9978 61.4487 68.2558 63.0406 70.9454L66.2312 69.0571L69.4218 67.1688C66.8564 62.834 62.828 59.6445 57.6733 57.4698L56.2321 60.8858ZM66.2312 69.0571L63.0872 71.0221C64.8345 73.8178 65.7491 77.0662 65.7491 80.8839H69.4567H73.1642C73.1642 75.8137 71.9285 71.1775 69.3752 67.0921L66.2312 69.0571ZM69.4567 80.8839H65.7491C65.7491 84.6167 64.84 87.9784 63.0355 91.046L66.2312 92.9258L69.4268 94.8056C71.923 90.5621 73.1642 85.8959 73.1642 80.8839H69.4567ZM66.2312 92.9258L63.0355 91.046C61.3069 93.9846 58.5971 96.4683 54.6816 98.426L56.3397 101.742L57.9977 105.058C62.9702 102.572 66.8548 99.1781 69.4268 94.8056L66.2312 92.9258ZM56.3397 101.742L54.66 98.4369C50.9654 100.314 46.0352 101.368 39.6746 101.368V105.075V108.783C46.7894 108.783 52.9693 107.614 58.0194 105.047L56.3397 101.742ZM99.2371 100.559L97.2466 103.687L97.2572 103.694L97.2679 103.701L99.2371 100.559ZM88.0554 87.4424L84.6988 89.0171L84.7026 89.0252L84.7064 89.0332L88.0554 87.4424ZM88.0554 45.4035L91.4043 46.9942L91.4081 46.9862L91.4119 46.9781L88.0554 45.4035ZM99.2371 32.1789L97.2679 29.0376L97.2572 29.0442L97.2466 29.051L99.2371 32.1789ZM131.492 32.1789L133.483 29.051L131.492 32.1789ZM142.674 45.4035L139.317 46.9781L139.329 47.0032L139.341 47.0281L142.674 45.4035ZM142.674 87.4424L139.333 85.8341L139.329 85.8429L139.325 85.8517L142.674 87.4424ZM131.492 100.559L129.502 97.4316H129.502L131.492 100.559ZM124.503 90.1304L126.674 93.136L126.701 93.1164L126.728 93.0964L124.503 90.1304ZM130.524 81.314L127.061 79.9915L127.05 80.0192L127.04 80.047L130.524 81.314ZM130.524 51.4244L127.04 52.6914L127.054 52.7299L127.069 52.7682L130.524 51.4244ZM124.503 42.7155L122.279 45.6816L122.306 45.7016L122.333 45.7212L124.503 42.7155ZM106.333 42.7155L108.504 45.7212L108.511 45.7158L108.519 45.7105L106.333 42.7155ZM100.205 51.4244L96.7411 50.1019L96.7345 50.1193L96.728 50.1367L100.205 51.4244ZM100.205 81.314L96.7204 82.581L96.7305 82.6088L96.7411 82.6365L100.205 81.314ZM106.333 90.1304L104.109 93.0964L104.155 93.1308L104.202 93.1638L106.333 90.1304ZM115.365 105.075V101.368C110.076 101.368 105.389 100.04 101.206 97.4181L99.2371 100.559L97.2679 103.701C102.69 107.1 108.755 108.783 115.365 108.783V105.075ZM99.2371 100.559L101.228 97.4316C97.1602 94.8432 93.8694 91.0414 91.4043 85.8517L88.0554 87.4424L84.7064 89.0332C87.6888 95.3119 91.8525 100.255 97.2466 103.687L99.2371 100.559ZM88.0554 87.4424L91.4119 85.8678C88.9754 80.6742 87.6773 74.2175 87.6773 66.3692H83.9697H80.2622C80.2622 75.0067 81.6878 82.5989 84.6988 89.0171L88.0554 87.4424ZM83.9697 66.3692H87.6773C87.6773 58.5186 88.9762 52.1061 91.4043 46.9942L88.0554 45.4035L84.7064 43.8127C81.6871 50.1692 80.2622 57.7339 80.2622 66.3692H83.9697ZM88.0554 45.4035L91.4119 46.9781C93.8809 41.7153 97.172 37.8876 101.228 35.3068L99.2371 32.1789L97.2466 29.051C91.8407 32.4911 87.6774 37.4798 84.6988 43.8288L88.0554 45.4035ZM99.2371 32.1789L101.206 35.3203C105.389 32.6986 110.076 31.3708 115.365 31.3708V27.6632V23.9557C108.755 23.9557 102.69 25.6383 97.2679 29.0376L99.2371 32.1789ZM115.365 27.6632V31.3708C120.735 31.3708 125.41 32.703 129.502 35.3068L131.492 32.1789L133.483 29.051C128.113 25.6339 122.036 23.9557 115.365 23.9557V27.6632ZM131.492 32.1789L129.502 35.3068C133.557 37.8876 136.848 41.7153 139.317 46.9781L142.674 45.4035L146.03 43.8288C143.052 37.4798 138.888 32.4911 133.483 29.051L131.492 32.1789ZM142.674 45.4035L139.341 47.0281C141.829 52.1307 143.159 58.5306 143.159 66.3692H146.867H150.574C150.574 57.7219 149.11 50.1446 146.006 43.7788L142.674 45.4035ZM146.867 66.3692H143.159C143.159 74.2056 141.829 80.6498 139.333 85.8341L142.674 87.4424L146.014 89.0508C149.109 82.6233 150.574 75.0187 150.574 66.3692H146.867ZM142.674 87.4424L139.325 85.8517C136.86 91.0414 133.569 94.8432 129.502 97.4316L131.492 100.559L133.483 103.687C138.877 100.255 143.04 95.3119 146.023 89.0332L142.674 87.4424ZM131.492 100.559L129.502 97.4316C125.41 100.035 120.735 101.368 115.365 101.368V105.075V108.783C122.036 108.783 128.113 107.105 133.483 103.687L131.492 100.559ZM115.365 92.9258V96.6333C119.572 96.6333 123.397 95.5031 126.674 93.136L124.503 90.1304L122.333 87.1247C120.449 88.4849 118.182 89.2182 115.365 89.2182V92.9258ZM124.503 90.1304L126.728 93.0964C130.034 90.6167 132.402 86.9994 134.009 82.581L130.524 81.314L127.04 80.047C125.78 83.5132 124.134 85.7734 122.279 87.1643L124.503 90.1304ZM130.524 81.314L133.988 82.6365C135.708 78.1331 136.49 72.6649 136.49 66.3692H132.782H129.075C129.075 72.1154 128.352 76.6104 127.061 79.9915L130.524 81.314ZM132.782 66.3692H136.49C136.49 60.0123 135.71 54.5303 133.98 50.0806L130.524 51.4244L127.069 52.7682C128.349 56.0597 129.075 60.5409 129.075 66.3692H132.782ZM130.524 51.4244L134.009 50.1574C132.401 45.7358 130.021 42.1272 126.674 39.7099L124.503 42.7155L122.333 45.7212C124.147 47.0311 125.781 49.2284 127.04 52.6914L130.524 51.4244ZM124.503 42.7155L126.728 39.7495C123.448 37.2895 119.604 36.105 115.365 36.105V39.8126V43.5201C118.15 43.5201 120.398 44.271 122.279 45.6816L124.503 42.7155ZM115.365 39.8126V36.105C111.232 36.105 107.452 37.3094 104.148 39.7206L106.333 42.7155L108.519 45.7105C110.519 44.251 112.759 43.5201 115.365 43.5201V39.8126ZM106.333 42.7155L104.162 39.7099C100.834 42.114 98.4217 45.7002 96.7411 50.1019L100.205 51.4244L103.668 52.7469C104.998 49.2641 106.672 47.0443 108.504 45.7212L106.333 42.7155ZM100.205 51.4244L96.728 50.1367C95.0875 54.5661 94.3469 60.0267 94.3469 66.3692H98.0544H101.762C101.762 60.5265 102.455 56.0239 103.681 52.7121L100.205 51.4244ZM98.0544 66.3692H94.3469C94.3469 72.6501 95.09 78.0974 96.7204 82.581L100.205 81.314L103.689 80.047C102.452 76.646 101.762 72.1301 101.762 66.3692H98.0544ZM100.205 81.314L96.7411 82.6365C98.4205 87.0348 100.82 90.6301 104.109 93.0964L106.333 90.1304L108.558 87.1643C106.685 85.76 104.999 83.4777 103.668 79.9915L100.205 81.314ZM106.333 90.1304L104.202 93.1638C107.504 95.4841 111.265 96.6333 115.365 96.6333V92.9258V89.2182C112.727 89.2182 110.467 88.5038 108.465 87.0969L106.333 90.1304ZM178.031 100.559L176.04 103.687L176.051 103.694L176.062 103.701L178.031 100.559ZM166.849 87.4424L163.493 89.0171L163.496 89.0252L163.5 89.0332L166.849 87.4424ZM166.849 45.4035L170.198 46.9942L170.202 46.9862L170.206 46.9781L166.849 45.4035ZM178.031 32.1789L176.062 29.0376L176.051 29.0442L176.04 29.051L178.031 32.1789ZM210.286 32.1789L212.276 29.051L210.286 32.1789ZM221.467 45.4035L218.111 46.9781L218.123 47.0032L218.135 47.0281L221.467 45.4035ZM221.467 87.4424L218.127 85.8341L218.123 85.8429L218.119 85.8517L221.467 87.4424ZM210.286 100.559L208.295 97.4316L210.286 100.559ZM203.297 90.1304L205.468 93.136L205.495 93.1164L205.522 93.0964L203.297 90.1304ZM209.318 81.314L205.854 79.9915L205.844 80.0192L205.834 80.047L209.318 81.314ZM209.318 51.4244L205.834 52.6914L205.848 52.7299L205.863 52.7682L209.318 51.4244ZM203.297 42.7155L201.073 45.6816L201.099 45.7016L201.126 45.7212L203.297 42.7155ZM185.127 42.7155L187.298 45.7212L187.305 45.7158L187.312 45.7105L185.127 42.7155ZM178.998 51.4244L175.535 50.1019L175.528 50.1193L175.522 50.1367L178.998 51.4244ZM178.998 81.314L175.514 82.581L175.524 82.6088L175.535 82.6365L178.998 81.314ZM185.127 90.1304L182.902 93.0964L182.948 93.1308L182.995 93.1638L185.127 90.1304ZM194.158 105.075V101.368C188.869 101.368 184.182 100.04 180 97.4181L178.031 100.559L176.062 103.701C181.484 107.1 187.549 108.783 194.158 108.783V105.075ZM178.031 100.559L180.021 97.4316C175.954 94.8432 172.663 91.0414 170.198 85.8517L166.849 87.4424L163.5 89.0332C166.483 95.3119 170.646 100.255 176.04 103.687L178.031 100.559ZM166.849 87.4424L170.206 85.8678C167.769 80.6742 166.471 74.2175 166.471 66.3692H162.763H159.056C159.056 75.0067 160.481 82.5989 163.493 89.0171L166.849 87.4424ZM162.763 66.3692H166.471C166.471 58.5186 167.77 52.1061 170.198 46.9942L166.849 45.4035L163.5 43.8127C160.481 50.1692 159.056 57.7339 159.056 66.3692H162.763ZM166.849 45.4035L170.206 46.9781C172.675 41.7153 175.966 37.8876 180.021 35.3068L178.031 32.1789L176.04 29.051C170.634 32.4911 166.471 37.4798 163.493 43.8288L166.849 45.4035ZM178.031 32.1789L180 35.3203C184.182 32.6986 188.869 31.3708 194.158 31.3708V27.6632V23.9557C187.549 23.9557 181.484 25.6383 176.062 29.0376L178.031 32.1789ZM194.158 27.6632V31.3708C199.528 31.3708 204.204 32.703 208.295 35.3068L210.286 32.1789L212.276 29.051C206.906 25.6339 200.83 23.9557 194.158 23.9557V27.6632ZM210.286 32.1789L208.295 35.3068C212.351 37.8876 215.642 41.7153 218.111 46.9781L221.467 45.4035L224.824 43.8288C221.845 37.4798 217.682 32.4911 212.276 29.051L210.286 32.1789ZM221.467 45.4035L218.135 47.0281C220.622 52.1307 221.953 58.5306 221.953 66.3692H225.661H229.368C229.368 57.7219 227.903 50.1446 224.8 43.7788L221.467 45.4035ZM225.661 66.3692H221.953C221.953 74.2056 220.623 80.6498 218.127 85.8341L221.467 87.4424L224.808 89.0508C227.903 82.6233 229.368 75.0187 229.368 66.3692H225.661ZM221.467 87.4424L218.119 85.8517C215.653 91.0414 212.363 94.8432 208.295 97.4316L210.286 100.559L212.276 103.687C217.67 100.255 221.834 95.3119 224.816 89.0332L221.467 87.4424ZM210.286 100.559L208.295 97.4316C204.204 100.035 199.528 101.368 194.158 101.368V105.075V108.783C200.83 108.783 206.906 107.105 212.276 103.687L210.286 100.559ZM194.158 92.9258V96.6333C198.365 96.6333 202.19 95.5031 205.468 93.136L203.297 90.1304L201.126 87.1247C199.243 88.4849 196.976 89.2182 194.158 89.2182V92.9258ZM203.297 90.1304L205.522 93.0964C208.828 90.6167 211.196 86.9994 212.802 82.581L209.318 81.314L205.834 80.047C204.573 83.5132 202.927 85.7734 201.073 87.1643L203.297 90.1304ZM209.318 81.314L212.782 82.6365C214.501 78.1331 215.284 72.6649 215.284 66.3692H211.576H207.868C207.868 72.1154 207.145 76.6104 205.854 79.9915L209.318 81.314ZM211.576 66.3692H215.284C215.284 60.0123 214.504 54.5303 212.774 50.0806L209.318 51.4244L205.863 52.7682C207.143 56.0597 207.868 60.5409 207.868 66.3692H211.576ZM209.318 51.4244L212.802 50.1574C211.195 45.7358 208.815 42.1272 205.468 39.7099L203.297 42.7155L201.126 45.7212C202.94 47.0311 204.575 49.2284 205.834 52.6914L209.318 51.4244ZM203.297 42.7155L205.522 39.7495C202.242 37.2895 198.397 36.105 194.158 36.105V39.8126V43.5201C196.944 43.5201 199.192 44.271 201.073 45.6816L203.297 42.7155ZM194.158 39.8126V36.105C190.026 36.105 186.246 37.3094 182.941 39.7206L185.127 42.7155L187.312 45.7105C189.312 44.251 191.553 43.5201 194.158 43.5201V39.8126ZM185.127 42.7155L182.956 39.7099C179.627 42.114 177.215 45.7002 175.535 50.1019L178.998 51.4244L182.462 52.7469C183.792 49.2641 185.466 47.0443 187.298 45.7212L185.127 42.7155ZM178.998 51.4244L175.522 50.1367C173.881 54.5661 173.141 60.0267 173.141 66.3692H176.848H180.556C180.556 60.5265 181.249 56.0239 182.475 52.7121L178.998 51.4244ZM176.848 66.3692H173.141C173.141 72.6501 173.884 78.0974 175.514 82.581L178.998 81.314L182.483 80.047C181.246 76.646 180.556 72.1301 180.556 66.3692H176.848ZM178.998 81.314L175.535 82.6365C177.214 87.0348 179.614 90.6301 182.902 93.0964L185.127 90.1304L187.351 87.1643C185.479 85.76 183.793 83.4777 182.462 79.9915L178.998 81.314ZM185.127 90.1304L182.995 93.1638C186.297 95.4841 190.058 96.6333 194.158 96.6333V92.9258V89.2182C191.52 89.2182 189.261 88.5038 187.259 87.0969L185.127 90.1304ZM263.37 90.5604H259.663V94.268H263.37V90.5604ZM263.37 42.178V38.4704H259.663V42.178H263.37ZM274.875 42.178H278.582V38.4704H274.875V42.178ZM274.875 90.5604V94.268H278.582V90.5604H274.875ZM244.34 71.745H240.632V75.4526H244.34V71.745ZM244.34 60.9934V57.2858H240.632V60.9934H244.34ZM293.905 60.9934H297.613V57.2858H293.905V60.9934ZM293.905 71.745V75.4526H297.613V71.745H293.905ZM263.37 90.5604H267.078V42.178H263.37H259.663V90.5604H263.37ZM263.37 42.178V45.8855H274.875V42.178V38.4704H263.37V42.178ZM274.875 42.178H271.167V90.5604H274.875H278.582V42.178H274.875ZM274.875 90.5604V86.8529H263.37V90.5604V94.268H274.875V90.5604ZM244.34 71.745H248.048V60.9934H244.34H240.632V71.745H244.34ZM244.34 60.9934V64.7009H293.905V60.9934V57.2858H244.34V60.9934ZM293.905 60.9934H290.198V71.745H293.905H297.613V60.9934H293.905ZM293.905 71.745V68.0375H244.34V71.745V75.4526H293.905V71.745Z" fill="url(#paint0_linear_14_222)" mask="url(#path-1-outside-1_14_222)"/>
<path d="M327 119.546V162.638" stroke="url(#paint1_linear_14_222)" stroke-width="2.6383" stroke-linecap="round" stroke-linejoin="round"/>
<path d="M337.333 134.936H342.5" stroke="url(#paint2_linear_14_222)" stroke-width="2.6383" stroke-linecap="round" stroke-linejoin="round"/>
<path d="M337.333 122.624H342.5" stroke="url(#paint3_linear_14_222)" stroke-width="2.6383" stroke-linecap="round" stroke-linejoin="round"/>
<path d="M303.75 153.404C303.065 153.404 302.408 153.08 301.923 152.503C301.439 151.926 301.167 151.143 301.167 150.326V110.312C301.167 109.496 301.439 108.713 301.923 108.136C302.408 107.558 303.065 107.234 303.75 107.234H316.667C319.407 107.234 322.035 108.531 323.973 110.84C325.911 113.149 327 116.281 327 119.546C327 116.281 328.089 113.149 330.026 110.84C331.964 108.531 334.593 107.234 337.333 107.234H350.25C350.935 107.234 351.592 107.558 352.077 108.136C352.561 108.713 352.833 109.496 352.833 110.312V150.326C352.833 151.143 352.561 151.926 352.077 152.503C351.592 153.08 350.935 153.404 350.25 153.404H334.75C332.694 153.404 330.723 154.377 329.27 156.109C327.816 157.841 327 160.189 327 162.638C327 160.189 326.183 157.841 324.73 156.109C323.277 154.377 321.305 153.404 319.25 153.404H303.75Z" stroke="url(#paint4_linear_14_222)" stroke-width="4" stroke-linecap="round" stroke-linejoin="round"/>
<path d="M311.5 134.936H316.667" stroke="url(#paint5_linear_14_222)" stroke-width="2.6383" stroke-linecap="round" stroke-linejoin="round"/>
<path d="M311.5 122.624H316.667" stroke="url(#paint6_linear_14_222)" stroke-width="2.6383" stroke-linecap="round" stroke-linejoin="round"/>
<path d="M8.17783 156V95.1013H17.4866L44.1081 139.557H39.2362L65.4226 95.1013H74.7314L74.8184 156H64.1176L64.0307 111.892H66.2926L44.0211 149.04H38.9752L16.3557 111.892H18.9656V156H8.17783ZM118.846 156V146.604L118.237 144.603V128.161C118.237 124.971 117.28 122.506 115.366 120.766C113.452 118.968 110.552 118.069 106.667 118.069C104.057 118.069 101.476 118.475 98.9237 119.287C96.4298 120.099 94.3128 121.23 92.5728 122.68L88.3099 114.763C90.8039 112.849 93.7618 111.428 97.1837 110.5C100.664 109.514 104.26 109.021 107.972 109.021C114.699 109.021 119.89 110.645 123.544 113.893C127.256 117.083 129.112 122.042 129.112 128.77V156H118.846ZM104.231 156.609C100.751 156.609 97.7057 156.029 95.0958 154.869C92.4858 153.651 90.4559 151.998 89.0059 149.91C87.6139 147.764 86.918 145.357 86.918 142.689C86.918 140.079 87.5269 137.73 88.7449 135.642C90.0209 133.554 92.0799 131.902 94.9218 130.684C97.7637 129.466 101.534 128.857 106.232 128.857H119.716V136.077H107.015C103.303 136.077 100.809 136.686 99.5327 137.904C98.2567 139.064 97.6187 140.514 97.6187 142.254C97.6187 144.226 98.4017 145.792 99.9677 146.952C101.534 148.112 103.709 148.692 106.493 148.692C109.16 148.692 111.538 148.083 113.626 146.865C115.772 145.647 117.309 143.849 118.237 141.471L120.064 147.996C119.02 150.722 117.135 152.839 114.409 154.347C111.741 155.855 108.349 156.609 104.231 156.609ZM160.555 156.609C155.451 156.609 151.507 155.304 148.723 152.694C145.939 150.026 144.547 146.111 144.547 140.949V99.2772H155.422V140.688C155.422 142.892 155.973 144.603 157.075 145.821C158.235 147.039 159.83 147.648 161.86 147.648C164.296 147.648 166.326 147.01 167.95 145.734L170.995 153.477C169.719 154.521 168.153 155.304 166.297 155.826C164.441 156.348 162.527 156.609 160.555 156.609ZM136.892 118.591V109.891H167.863V118.591H136.892ZM200.248 156.609C195.086 156.609 190.562 155.594 186.676 153.564C182.848 151.476 179.861 148.634 177.715 145.038C175.628 141.442 174.584 137.353 174.584 132.771C174.584 128.132 175.599 124.043 177.628 120.505C179.716 116.909 182.558 114.096 186.154 112.066C189.808 110.036 193.955 109.021 198.595 109.021C203.119 109.021 207.15 110.007 210.688 111.979C214.226 113.951 217.01 116.735 219.04 120.331C221.07 123.927 222.085 128.161 222.085 133.032C222.085 133.496 222.056 134.018 221.998 134.598C221.998 135.178 221.969 135.729 221.911 136.251H183.196V129.031H216.169L211.906 131.293C211.964 128.625 211.413 126.276 210.253 124.246C209.093 122.216 207.498 120.621 205.468 119.461C203.496 118.301 201.205 117.721 198.595 117.721C195.927 117.721 193.578 118.301 191.548 119.461C189.576 120.621 188.01 122.245 186.85 124.333C185.748 126.363 185.197 128.77 185.197 131.554V133.293C185.197 136.077 185.835 138.542 187.111 140.688C188.387 142.834 190.185 144.487 192.505 145.647C194.825 146.807 197.493 147.387 200.509 147.387C203.119 147.387 205.468 146.981 207.556 146.169C209.644 145.357 211.5 144.081 213.124 142.341L218.953 149.04C216.865 151.476 214.226 153.361 211.036 154.695C207.904 155.971 204.308 156.609 200.248 156.609ZM232.53 156V109.543H242.883V122.332L241.665 118.591C243.057 115.459 245.232 113.081 248.19 111.457C251.206 109.833 254.947 109.021 259.413 109.021V119.374C258.949 119.258 258.514 119.2 258.108 119.2C257.702 119.142 257.296 119.113 256.89 119.113C252.772 119.113 249.495 120.331 247.059 122.767C244.623 125.145 243.405 128.712 243.405 133.467V156H232.53ZM268.638 156V109.543H279.513V156H268.638ZM274.119 101.887C272.089 101.887 270.407 101.249 269.073 99.9732C267.797 98.6972 267.159 97.1602 267.159 95.3623C267.159 93.5063 267.797 91.9693 269.073 90.7514C270.407 89.4754 272.089 88.8374 274.119 88.8374C276.149 88.8374 277.802 89.4464 279.078 90.6644C280.412 91.8244 281.079 93.3033 281.079 95.1013C281.079 97.0152 280.441 98.6392 279.165 99.9732C277.889 101.249 276.207 101.887 274.119 101.887Z" fill="url(#paint7_linear_14_222)"/>
<defs>
<linearGradient id="paint0_linear_14_222" x1="155.5" y1="0" x2="155.5" y2="131" gradientUnits="userSpaceOnUse">
<stop stop-color="#D0BEFF"/>
<stop offset="1" stop-color="#0F1624" stop-opacity="0"/>
</linearGradient>
<linearGradient id="paint1_linear_14_222" x1="327.5" y1="119.546" x2="327.5" y2="162.638" gradientUnits="userSpaceOnUse">
<stop stop-color="#F1FAB5"/>
<stop offset="1" stop-color="#50A6D4"/>
</linearGradient>
<linearGradient id="paint2_linear_14_222" x1="339.917" y1="134.936" x2="339.917" y2="135.936" gradientUnits="userSpaceOnUse">
<stop stop-color="#F1FAB5"/>
<stop offset="1" stop-color="#50A6D4"/>
</linearGradient>
<linearGradient id="paint3_linear_14_222" x1="339.917" y1="122.624" x2="339.917" y2="123.624" gradientUnits="userSpaceOnUse">
<stop stop-color="#F1FAB5"/>
<stop offset="1" stop-color="#50A6D4"/>
</linearGradient>
<linearGradient id="paint4_linear_14_222" x1="327" y1="107.234" x2="327" y2="162.638" gradientUnits="userSpaceOnUse">
<stop stop-color="#F1FAB5"/>
<stop offset="1" stop-color="#50A6D4"/>
</linearGradient>
<linearGradient id="paint5_linear_14_222" x1="314.083" y1="134.936" x2="314.083" y2="135.936" gradientUnits="userSpaceOnUse">
<stop stop-color="#F1FAB5"/>
<stop offset="1" stop-color="#50A6D4"/>
</linearGradient>
<linearGradient id="paint6_linear_14_222" x1="314.083" y1="122.624" x2="314.083" y2="123.624" gradientUnits="userSpaceOnUse">
<stop stop-color="#F1FAB5"/>
<stop offset="1" stop-color="#50A6D4"/>
</linearGradient>
<linearGradient id="paint7_linear_14_222" x1="0" y1="125" x2="287" y2="125" gradientUnits="userSpaceOnUse">
<stop stop-color="#FAFFB2"/>
<stop offset="1" stop-color="#48A2D6"/>
</linearGradient>
</defs>
</svg>
