<svg width="478" height="173" viewBox="0 0 478 173" fill="none" xmlns="http://www.w3.org/2000/svg">
<mask id="path-1-outside-1_14_221" maskUnits="userSpaceOnUse" x="5" y="23" width="269" height="86" fill="black">
<rect fill="white" x="5" y="23" width="269" height="86"/>
<path d="M24.7726 104V34.1142L30.901 40.4577H8.86013V28.7384H38.7497V104H24.7726ZM91.5253 105.075C85.576 105.075 80.2002 103.57 75.3978 100.559C70.6671 97.549 66.9398 93.1767 64.2161 87.4424C61.4923 81.6365 60.1304 74.6121 60.1304 66.3692C60.1304 58.1263 61.4923 51.1377 64.2161 45.4035C66.9398 39.5976 70.6671 35.1894 75.3978 32.1789C80.2002 29.1684 85.576 27.6632 91.5253 27.6632C97.5462 27.6632 102.922 29.1684 107.653 32.1789C112.383 35.1894 116.111 39.5976 118.834 45.4035C121.63 51.1377 123.028 58.1263 123.028 66.3692C123.028 74.6121 121.63 81.6365 118.834 87.4424C116.111 93.1767 112.383 97.549 107.653 100.559C102.922 103.57 97.5462 105.075 91.5253 105.075ZM91.5253 92.9258C95.0375 92.9258 98.0838 91.994 100.664 90.1304C103.245 88.1951 105.252 85.2563 106.685 81.314C108.19 77.3717 108.943 72.3901 108.943 66.3692C108.943 60.2766 108.19 55.295 106.685 51.4244C105.252 47.4821 103.245 44.5792 100.664 42.7155C98.0838 40.7802 95.0375 39.8126 91.5253 39.8126C88.1564 39.8126 85.146 40.7802 82.4939 42.7155C79.9135 44.5792 77.8707 47.4821 76.3654 51.4244C74.9319 55.295 74.2151 60.2766 74.2151 66.3692C74.2151 72.3901 74.9319 77.3717 76.3654 81.314C77.8707 85.2563 79.9135 88.1951 82.4939 90.1304C85.146 91.994 88.1564 92.9258 91.5253 92.9258ZM170.319 105.075C164.37 105.075 158.994 103.57 154.191 100.559C149.461 97.549 145.734 93.1767 143.01 87.4424C140.286 81.6365 138.924 74.6121 138.924 66.3692C138.924 58.1263 140.286 51.1377 143.01 45.4035C145.734 39.5976 149.461 35.1894 154.191 32.1789C158.994 29.1684 164.37 27.6632 170.319 27.6632C176.34 27.6632 181.716 29.1684 186.446 32.1789C191.177 35.1894 194.904 39.5976 197.628 45.4035C200.424 51.1377 201.821 58.1263 201.821 66.3692C201.821 74.6121 200.424 81.6365 197.628 87.4424C194.904 93.1767 191.177 97.549 186.446 100.559C181.716 103.57 176.34 105.075 170.319 105.075ZM170.319 92.9258C173.831 92.9258 176.877 91.994 179.458 90.1304C182.038 88.1951 184.045 85.2563 185.479 81.314C186.984 77.3717 187.737 72.3901 187.737 66.3692C187.737 60.2766 186.984 55.295 185.479 51.4244C184.045 47.4821 182.038 44.5792 179.458 42.7155C176.877 40.7802 173.831 39.8126 170.319 39.8126C166.95 39.8126 163.94 40.7802 161.288 42.7155C158.707 44.5792 156.664 47.4821 155.159 51.4244C153.726 55.295 153.009 60.2766 153.009 66.3692C153.009 72.3901 153.726 77.3717 155.159 81.314C156.664 85.2563 158.707 88.1951 161.288 90.1304C163.94 91.994 166.95 92.9258 170.319 92.9258ZM239.531 90.5604V42.178H251.035V90.5604H239.531ZM220.501 71.745V60.9934H270.066V71.745H220.501Z"/>
</mask>
<path d="M24.7726 104H21.065V107.708H24.7726V104ZM24.7726 34.1142L27.439 31.5382L21.065 24.9405V34.1142H24.7726ZM30.901 40.4577V44.1652H39.6381L33.5675 37.8816L30.901 40.4577ZM8.86013 40.4577H5.15259V44.1652H8.86013V40.4577ZM8.86013 28.7384V25.0308H5.15259V28.7384H8.86013ZM38.7497 28.7384H42.4573V25.0308H38.7497V28.7384ZM38.7497 104V107.708H42.4573V104H38.7497ZM24.7726 104H28.4801V34.1142H24.7726H21.065V104H24.7726ZM24.7726 34.1142L22.1062 36.6903L28.2346 43.0337L30.901 40.4577L33.5675 37.8816L27.439 31.5382L24.7726 34.1142ZM30.901 40.4577V36.7501H8.86013V40.4577V44.1652H30.901V40.4577ZM8.86013 40.4577H12.5677V28.7384H8.86013H5.15259V40.4577H8.86013ZM8.86013 28.7384V32.4459H38.7497V28.7384V25.0308H8.86013V28.7384ZM38.7497 28.7384H35.0422V104H38.7497H42.4573V28.7384H38.7497ZM38.7497 104V100.292H24.7726V104V107.708H38.7497V104ZM75.3978 100.559L73.4073 103.687L73.4179 103.694L73.4286 103.701L75.3978 100.559ZM64.2161 87.4424L60.8595 89.0171L60.8633 89.0252L60.8671 89.0332L64.2161 87.4424ZM64.2161 45.4035L67.565 46.9942L67.5688 46.9862L67.5726 46.9781L64.2161 45.4035ZM75.3978 32.1789L73.4286 29.0376L73.4179 29.0442L73.4073 29.051L75.3978 32.1789ZM107.653 32.1789L109.643 29.051L107.653 32.1789ZM118.834 45.4035L115.478 46.9781L115.49 47.0032L115.502 47.0281L118.834 45.4035ZM118.834 87.4424L115.494 85.8341L115.49 85.8429L115.486 85.8517L118.834 87.4424ZM107.653 100.559L105.662 97.4316L107.653 100.559ZM100.664 90.1304L102.835 93.136L102.862 93.1164L102.889 93.0964L100.664 90.1304ZM106.685 81.314L103.221 79.9915L103.211 80.0192L103.201 80.047L106.685 81.314ZM106.685 51.4244L103.201 52.6914L103.215 52.7299L103.23 52.7682L106.685 51.4244ZM100.664 42.7155L98.4397 45.6816L98.4664 45.7016L98.4935 45.7212L100.664 42.7155ZM82.4939 42.7155L84.6646 45.7212L84.672 45.7158L84.6794 45.7105L82.4939 42.7155ZM76.3654 51.4244L72.9018 50.1019L72.8951 50.1193L72.8887 50.1367L76.3654 51.4244ZM76.3654 81.314L72.8811 82.581L72.8912 82.6088L72.9018 82.6365L76.3654 81.314ZM82.4939 90.1304L80.2694 93.0964L80.3153 93.1308L80.3622 93.1638L82.4939 90.1304ZM91.5253 105.075V101.368C86.2363 101.368 81.5492 100.04 77.367 97.4181L75.3978 100.559L73.4286 103.701C78.8511 107.1 84.9157 108.783 91.5253 108.783V105.075ZM75.3978 100.559L77.3883 97.4316C73.3209 94.8432 70.0301 91.0414 67.565 85.8517L64.2161 87.4424L60.8671 89.0332C63.8495 95.3119 68.0132 100.255 73.4073 103.687L75.3978 100.559ZM64.2161 87.4424L67.5726 85.8678C65.1361 80.6742 63.838 74.2175 63.838 66.3692H60.1304H56.4229C56.4229 75.0067 57.8485 82.5989 60.8595 89.0171L64.2161 87.4424ZM60.1304 66.3692H63.838C63.838 58.5186 65.1368 52.1061 67.565 46.9942L64.2161 45.4035L60.8671 43.8127C57.8478 50.1692 56.4229 57.7339 56.4229 66.3692H60.1304ZM64.2161 45.4035L67.5726 46.9781C70.0416 41.7153 73.3327 37.8876 77.3883 35.3068L75.3978 32.1789L73.4073 29.051C68.0014 32.4911 63.8381 37.4798 60.8595 43.8288L64.2161 45.4035ZM75.3978 32.1789L77.367 35.3203C81.5492 32.6986 86.2363 31.3708 91.5253 31.3708V27.6632V23.9557C84.9157 23.9557 78.8511 25.6383 73.4286 29.0376L75.3978 32.1789ZM91.5253 27.6632V31.3708C96.8954 31.3708 101.571 32.703 105.662 35.3068L107.653 32.1789L109.643 29.051C104.273 25.6339 98.1971 23.9557 91.5253 23.9557V27.6632ZM107.653 32.1789L105.662 35.3068C109.718 37.8876 113.009 41.7153 115.478 46.9781L118.834 45.4035L122.191 43.8288C119.212 37.4798 115.049 32.4911 109.643 29.051L107.653 32.1789ZM118.834 45.4035L115.502 47.0281C117.989 52.1307 119.32 58.5306 119.32 66.3692H123.028H126.735C126.735 57.7219 125.27 50.1446 122.167 43.7788L118.834 45.4035ZM123.028 66.3692H119.32C119.32 74.2056 117.99 80.6498 115.494 85.8341L118.834 87.4424L122.175 89.0508C125.27 82.6233 126.735 75.0187 126.735 66.3692H123.028ZM118.834 87.4424L115.486 85.8517C113.02 91.0414 109.73 94.8432 105.662 97.4316L107.653 100.559L109.643 103.687C115.037 100.255 119.201 95.3119 122.183 89.0332L118.834 87.4424ZM107.653 100.559L105.662 97.4316C101.571 100.035 96.8954 101.368 91.5253 101.368V105.075V108.783C98.1971 108.783 104.273 107.105 109.643 103.687L107.653 100.559ZM91.5253 92.9258V96.6333C95.7322 96.6333 99.5574 95.5031 102.835 93.136L100.664 90.1304L98.4935 87.1247C96.6102 88.4849 94.3427 89.2182 91.5253 89.2182V92.9258ZM100.664 90.1304L102.889 93.0964C106.195 90.6167 108.563 86.9994 110.169 82.581L106.685 81.314L103.201 80.047C101.94 83.5132 100.294 85.7734 98.4397 87.1643L100.664 90.1304ZM106.685 81.314L110.149 82.6365C111.868 78.1331 112.651 72.6649 112.651 66.3692H108.943H105.235C105.235 72.1154 104.512 76.6104 103.221 79.9915L106.685 81.314ZM108.943 66.3692H112.651C112.651 60.0123 111.871 54.5303 110.141 50.0806L106.685 51.4244L103.23 52.7682C104.51 56.0597 105.235 60.5409 105.235 66.3692H108.943ZM106.685 51.4244L110.169 50.1574C108.562 45.7358 106.182 42.1272 102.835 39.7099L100.664 42.7155L98.4935 45.7212C100.307 47.0311 101.942 49.2284 103.201 52.6914L106.685 51.4244ZM100.664 42.7155L102.889 39.7495C99.6087 37.2895 95.7642 36.105 91.5253 36.105V39.8126V43.5201C94.3108 43.5201 96.5589 44.271 98.4397 45.6816L100.664 42.7155ZM91.5253 39.8126V36.105C87.3928 36.105 83.6126 37.3094 80.3084 39.7206L82.4939 42.7155L84.6794 45.7105C86.6793 44.251 88.92 43.5201 91.5253 43.5201V39.8126ZM82.4939 42.7155L80.3232 39.7099C76.9944 42.114 74.5824 45.7002 72.9018 50.1019L76.3654 51.4244L79.8291 52.7469C81.1589 49.2641 82.8326 47.0443 84.6646 45.7212L82.4939 42.7155ZM76.3654 51.4244L72.8887 50.1367C71.2482 54.5661 70.5076 60.0267 70.5076 66.3692H74.2151H77.9227C77.9227 60.5265 78.6156 56.0239 79.8422 52.7121L76.3654 51.4244ZM74.2151 66.3692H70.5076C70.5076 72.6501 71.2507 78.0974 72.8811 82.581L76.3654 81.314L79.8498 80.047C78.6131 76.646 77.9227 72.1301 77.9227 66.3692H74.2151ZM76.3654 81.314L72.9018 82.6365C74.5812 87.0348 76.9809 90.6301 80.2694 93.0964L82.4939 90.1304L84.7184 87.1643C82.846 85.76 81.1602 83.4777 79.8291 79.9915L76.3654 81.314ZM82.4939 90.1304L80.3622 93.1638C83.6642 95.4841 87.4254 96.6333 91.5253 96.6333V92.9258V89.2182C88.8875 89.2182 86.6277 88.5038 84.6255 87.0969L82.4939 90.1304ZM154.191 100.559L152.201 103.687L152.212 103.694L152.222 103.701L154.191 100.559ZM143.01 87.4424L139.653 89.0171L139.657 89.0252L139.661 89.0332L143.01 87.4424ZM143.01 45.4035L146.359 46.9942L146.363 46.9862L146.366 46.9781L143.01 45.4035ZM154.191 32.1789L152.222 29.0376L152.212 29.0442L152.201 29.051L154.191 32.1789ZM186.446 32.1789L188.437 29.051L186.446 32.1789ZM197.628 45.4035L194.272 46.9781L194.283 47.0032L194.296 47.0281L197.628 45.4035ZM197.628 87.4424L194.288 85.8341L194.283 85.8429L194.279 85.8517L197.628 87.4424ZM186.446 100.559L184.456 97.4316L186.446 100.559ZM179.458 90.1304L181.629 93.136L181.656 93.1164L181.682 93.0964L179.458 90.1304ZM185.479 81.314L182.015 79.9915L182.005 80.0192L181.994 80.047L185.479 81.314ZM185.479 51.4244L181.994 52.6914L182.008 52.7299L182.023 52.7682L185.479 51.4244ZM179.458 42.7155L177.233 45.6816L177.26 45.7016L177.287 45.7212L179.458 42.7155ZM161.288 42.7155L163.458 45.7212L163.466 45.7158L163.473 45.7105L161.288 42.7155ZM155.159 51.4244L151.695 50.1019L151.689 50.1193L151.682 50.1367L155.159 51.4244ZM155.159 81.314L151.675 82.581L151.685 82.6088L151.695 82.6365L155.159 81.314ZM161.288 90.1304L159.063 93.0964L159.109 93.1308L159.156 93.1638L161.288 90.1304ZM170.319 105.075V101.368C165.03 101.368 160.343 100.04 156.161 97.4181L154.191 100.559L152.222 103.701C157.645 107.1 163.709 108.783 170.319 108.783V105.075ZM154.191 100.559L156.182 97.4316C152.115 94.8432 148.824 91.0414 146.359 85.8517L143.01 87.4424L139.661 89.0332C142.643 95.3119 146.807 100.255 152.201 103.687L154.191 100.559ZM143.01 87.4424L146.366 85.8678C143.93 80.6742 142.632 74.2175 142.632 66.3692H138.924H135.217C135.217 75.0067 136.642 82.5989 139.653 89.0171L143.01 87.4424ZM138.924 66.3692H142.632C142.632 58.5186 143.931 52.1061 146.359 46.9942L143.01 45.4035L139.661 43.8127C136.641 50.1692 135.217 57.7339 135.217 66.3692H138.924ZM143.01 45.4035L146.366 46.9781C148.835 41.7153 152.126 37.8876 156.182 35.3068L154.191 32.1789L152.201 29.051C146.795 32.4911 142.632 37.4798 139.653 43.8288L143.01 45.4035ZM154.191 32.1789L156.161 35.3203C160.343 32.6986 165.03 31.3708 170.319 31.3708V27.6632V23.9557C163.709 23.9557 157.645 25.6383 152.222 29.0376L154.191 32.1789ZM170.319 27.6632V31.3708C175.689 31.3708 180.364 32.703 184.456 35.3068L186.446 32.1789L188.437 29.051C183.067 25.6339 176.991 23.9557 170.319 23.9557V27.6632ZM186.446 32.1789L184.456 35.3068C188.512 37.8876 191.803 41.7153 194.272 46.9781L197.628 45.4035L200.985 43.8288C198.006 37.4798 193.843 32.4911 188.437 29.051L186.446 32.1789ZM197.628 45.4035L194.296 47.0281C196.783 52.1307 198.114 58.5306 198.114 66.3692H201.821H205.529C205.529 57.7219 204.064 50.1446 200.961 43.7788L197.628 45.4035ZM201.821 66.3692H198.114C198.114 74.2056 196.784 80.6498 194.288 85.8341L197.628 87.4424L200.969 89.0508C204.063 82.6233 205.529 75.0187 205.529 66.3692H201.821ZM197.628 87.4424L194.279 85.8517C191.814 91.0414 188.523 94.8432 184.456 97.4316L186.446 100.559L188.437 103.687C193.831 100.255 197.995 95.3119 200.977 89.0332L197.628 87.4424ZM186.446 100.559L184.456 97.4316C180.364 100.035 175.689 101.368 170.319 101.368V105.075V108.783C176.991 108.783 183.067 107.105 188.437 103.687L186.446 100.559ZM170.319 92.9258V96.6333C174.526 96.6333 178.351 95.5031 181.629 93.136L179.458 90.1304L177.287 87.1247C175.404 88.4849 173.136 89.2182 170.319 89.2182V92.9258ZM179.458 90.1304L181.682 93.0964C184.989 90.6167 187.356 86.9994 188.963 82.581L185.479 81.314L181.994 80.047C180.734 83.5132 179.088 85.7734 177.233 87.1643L179.458 90.1304ZM185.479 81.314L188.942 82.6365C190.662 78.1331 191.444 72.6649 191.444 66.3692H187.737H184.029C184.029 72.1154 183.306 76.6104 182.015 79.9915L185.479 81.314ZM187.737 66.3692H191.444C191.444 60.0123 190.665 54.5303 188.934 50.0806L185.479 51.4244L182.023 52.7682C183.303 56.0597 184.029 60.5409 184.029 66.3692H187.737ZM185.479 51.4244L188.963 50.1574C187.355 45.7358 184.976 42.1272 181.629 39.7099L179.458 42.7155L177.287 45.7212C179.101 47.0311 180.735 49.2284 181.994 52.6914L185.479 51.4244ZM179.458 42.7155L181.682 39.7495C178.402 37.2895 174.558 36.105 170.319 36.105V39.8126V43.5201C173.104 43.5201 175.353 44.271 177.233 45.6816L179.458 42.7155ZM170.319 39.8126V36.105C166.187 36.105 162.406 37.3094 159.102 39.7206L161.288 42.7155L163.473 45.7105C165.473 44.251 167.714 43.5201 170.319 43.5201V39.8126ZM161.288 42.7155L159.117 39.7099C155.788 42.114 153.376 45.7002 151.695 50.1019L155.159 51.4244L158.623 52.7469C159.953 49.2641 161.626 47.0443 163.458 45.7212L161.288 42.7155ZM155.159 51.4244L151.682 50.1367C150.042 54.5661 149.301 60.0267 149.301 66.3692H153.009H156.716C156.716 60.5265 157.409 56.0239 158.636 52.7121L155.159 51.4244ZM153.009 66.3692H149.301C149.301 72.6501 150.044 78.0974 151.675 82.581L155.159 81.314L158.643 80.047C157.407 76.646 156.716 72.1301 156.716 66.3692H153.009ZM155.159 81.314L151.695 82.6365C153.375 87.0348 155.775 90.6301 159.063 93.0964L161.288 90.1304L163.512 87.1643C161.64 85.76 159.954 83.4777 158.623 79.9915L155.159 81.314ZM161.288 90.1304L159.156 93.1638C162.458 95.4841 166.219 96.6333 170.319 96.6333V92.9258V89.2182C167.681 89.2182 165.421 88.5038 163.419 87.0969L161.288 90.1304ZM239.531 90.5604H235.824V94.268H239.531V90.5604ZM239.531 42.178V38.4704H235.824V42.178H239.531ZM251.035 42.178H254.743V38.4704H251.035V42.178ZM251.035 90.5604V94.268H254.743V90.5604H251.035ZM220.501 71.745H216.793V75.4526H220.501V71.745ZM220.501 60.9934V57.2858H216.793V60.9934H220.501ZM270.066 60.9934H273.773V57.2858H270.066V60.9934ZM270.066 71.745V75.4526H273.773V71.745H270.066ZM239.531 90.5604H243.239V42.178H239.531H235.824V90.5604H239.531ZM239.531 42.178V45.8855H251.035V42.178V38.4704H239.531V42.178ZM251.035 42.178H247.328V90.5604H251.035H254.743V42.178H251.035ZM251.035 90.5604V86.8529H239.531V90.5604V94.268H251.035V90.5604ZM220.501 71.745H224.208V60.9934H220.501H216.793V71.745H220.501ZM220.501 60.9934V64.7009H270.066V60.9934V57.2858H220.501V60.9934ZM270.066 60.9934H266.358V71.745H270.066H273.773V60.9934H270.066ZM270.066 71.745V68.0375H220.501V71.745V75.4526H270.066V71.745Z" fill="url(#paint0_linear_14_221)" mask="url(#path-1-outside-1_14_221)"/>
<path d="M0.565009 150.347L27.9694 89.4482H39.1052L66.5966 150.347H54.7649L31.1884 95.4511H35.7123L12.2228 150.347H0.565009ZM13.1797 136.253L16.2247 127.379H49.11L52.1549 136.253H13.1797ZM99.658 103.368C103.37 103.368 106.676 104.093 109.576 105.543C112.534 106.993 114.854 109.226 116.536 112.242C118.218 115.2 119.059 119.028 119.059 123.725V150.347H108.184V125.117C108.184 121 107.198 117.926 105.226 115.896C103.312 113.866 100.615 112.851 97.135 112.851C94.5831 112.851 92.3211 113.373 90.3491 114.417C88.3772 115.461 86.8402 117.027 85.7382 119.115C84.6943 121.145 84.1723 123.725 84.1723 126.857V150.347H73.2975V103.89H83.6503V116.418L81.8233 112.59C83.4473 109.632 85.7962 107.37 88.8702 105.804C92.0021 104.18 95.598 103.368 99.658 103.368ZM153.992 167.834C149.7 167.834 145.496 167.254 141.378 166.094C137.318 164.992 133.983 163.368 131.373 161.222L136.245 153.044C138.275 154.726 140.827 156.06 143.901 157.046C147.033 158.09 150.193 158.612 153.383 158.612C158.487 158.612 162.228 157.423 164.606 155.045C166.984 152.725 168.173 149.216 168.173 144.518V136.253L169.043 125.726L168.695 115.2V103.89H179.048V143.3C179.048 151.71 176.902 157.887 172.61 161.831C168.318 165.833 162.112 167.834 153.992 167.834ZM152.6 148.259C148.193 148.259 144.191 147.331 140.595 145.475C137.057 143.561 134.244 140.922 132.156 137.558C130.126 134.194 129.111 130.25 129.111 125.726C129.111 121.261 130.126 117.346 132.156 113.982C134.244 110.618 137.057 108.008 140.595 106.152C144.191 104.296 148.193 103.368 152.6 103.368C156.544 103.368 160.082 104.151 163.214 105.717C166.346 107.283 168.84 109.719 170.696 113.025C172.61 116.331 173.567 120.565 173.567 125.726C173.567 130.888 172.61 135.151 170.696 138.515C168.84 141.821 166.346 144.286 163.214 145.91C160.082 147.476 156.544 148.259 152.6 148.259ZM154.253 139.037C156.979 139.037 159.415 138.486 161.561 137.384C163.707 136.224 165.36 134.658 166.52 132.686C167.738 130.656 168.347 128.336 168.347 125.726C168.347 123.116 167.738 120.826 166.52 118.854C165.36 116.824 163.707 115.287 161.561 114.243C159.415 113.141 156.979 112.59 154.253 112.59C151.527 112.59 149.062 113.141 146.859 114.243C144.713 115.287 143.031 116.824 141.813 118.854C140.653 120.826 140.073 123.116 140.073 125.726C140.073 128.336 140.653 130.656 141.813 132.686C143.031 134.658 144.713 136.224 146.859 137.384C149.062 138.486 151.527 139.037 154.253 139.037ZM214.398 167.834C210.106 167.834 205.902 167.254 201.784 166.094C197.724 164.992 194.389 163.368 191.779 161.222L196.651 153.044C198.681 154.726 201.233 156.06 204.307 157.046C207.438 158.09 210.599 158.612 213.789 158.612C218.893 158.612 222.634 157.423 225.012 155.045C227.39 152.725 228.579 149.216 228.579 144.518V136.253L229.449 125.726L229.101 115.2V103.89H239.454V143.3C239.454 151.71 237.308 157.887 233.016 161.831C228.724 165.833 222.518 167.834 214.398 167.834ZM213.006 148.259C208.598 148.259 204.597 147.331 201.001 145.475C197.463 143.561 194.65 140.922 192.562 137.558C190.532 134.194 189.517 130.25 189.517 125.726C189.517 121.261 190.532 117.346 192.562 113.982C194.65 110.618 197.463 108.008 201.001 106.152C204.597 104.296 208.598 103.368 213.006 103.368C216.95 103.368 220.488 104.151 223.62 105.717C226.752 107.283 229.246 109.719 231.102 113.025C233.016 116.331 233.973 120.565 233.973 125.726C233.973 130.888 233.016 135.151 231.102 138.515C229.246 141.821 226.752 144.286 223.62 145.91C220.488 147.476 216.95 148.259 213.006 148.259ZM214.659 139.037C217.385 139.037 219.821 138.486 221.967 137.384C224.113 136.224 225.766 134.658 226.926 132.686C228.144 130.656 228.753 128.336 228.753 125.726C228.753 123.116 228.144 120.826 226.926 118.854C225.766 116.824 224.113 115.287 221.967 114.243C219.821 113.141 217.385 112.59 214.659 112.59C211.933 112.59 209.468 113.141 207.264 114.243C205.119 115.287 203.437 116.824 202.219 118.854C201.059 120.826 200.479 123.116 200.479 125.726C200.479 128.336 201.059 130.656 202.219 132.686C203.437 134.658 205.119 136.224 207.264 137.384C209.468 138.486 211.933 139.037 214.659 139.037ZM274.63 150.956C269.874 150.956 265.64 149.941 261.929 147.911C258.217 145.823 255.288 142.981 253.142 139.385C250.996 135.789 249.923 131.7 249.923 127.118C249.923 122.479 250.996 118.39 253.142 114.852C255.288 111.256 258.217 108.443 261.929 106.413C265.64 104.383 269.874 103.368 274.63 103.368C279.444 103.368 283.707 104.383 287.419 106.413C291.189 108.443 294.118 111.227 296.206 114.765C298.352 118.303 299.425 122.421 299.425 127.118C299.425 131.7 298.352 135.789 296.206 139.385C294.118 142.981 291.189 145.823 287.419 147.911C283.707 149.941 279.444 150.956 274.63 150.956ZM274.63 141.647C277.298 141.647 279.676 141.067 281.764 139.907C283.852 138.747 285.476 137.065 286.636 134.861C287.854 132.657 288.463 130.076 288.463 127.118C288.463 124.102 287.854 121.522 286.636 119.376C285.476 117.172 283.852 115.49 281.764 114.33C279.676 113.17 277.327 112.59 274.717 112.59C272.049 112.59 269.671 113.17 267.583 114.33C265.553 115.49 263.93 117.172 262.712 119.376C261.494 121.522 260.885 124.102 260.885 127.118C260.885 130.076 261.494 132.657 262.712 134.861C263.93 137.065 265.553 138.747 267.583 139.907C269.671 141.067 272.02 141.647 274.63 141.647ZM327.31 150.956C322.206 150.956 318.263 149.651 315.479 147.041C312.695 144.373 311.303 140.458 311.303 135.296V93.6241H322.177V135.035C322.177 137.239 322.728 138.95 323.83 140.168C324.99 141.386 326.585 141.995 328.615 141.995C331.051 141.995 333.081 141.357 334.705 140.081L337.75 147.824C336.474 148.868 334.908 149.651 333.052 150.173C331.196 150.695 329.282 150.956 327.31 150.956ZM303.647 112.938V104.238H334.618V112.938H303.647ZM375.318 150.347V140.951L374.709 138.95V122.508C374.709 119.318 373.752 116.853 371.838 115.113C369.925 113.315 367.025 112.416 363.139 112.416C360.529 112.416 357.948 112.822 355.396 113.634C352.902 114.446 350.785 115.577 349.045 117.027L344.782 109.11C347.276 107.196 350.234 105.775 353.656 104.847C357.136 103.861 360.732 103.368 364.444 103.368C371.171 103.368 376.362 104.992 380.016 108.24C383.728 111.43 385.584 116.389 385.584 123.116V150.347H375.318ZM360.703 150.956C357.223 150.956 354.178 150.376 351.568 149.216C348.958 147.998 346.928 146.345 345.478 144.257C344.086 142.111 343.39 139.704 343.39 137.036C343.39 134.426 343.999 132.077 345.217 129.989C346.493 127.901 348.552 126.248 351.394 125.03C354.236 123.812 358.006 123.203 362.704 123.203H376.188V130.424H363.487C359.775 130.424 357.281 131.033 356.005 132.251C354.729 133.411 354.091 134.861 354.091 136.601C354.091 138.573 354.874 140.139 356.44 141.299C358.006 142.459 360.181 143.039 362.965 143.039C365.633 143.039 368.011 142.43 370.099 141.212C372.244 139.994 373.781 138.196 374.709 135.818L376.536 142.343C375.492 145.069 373.607 147.186 370.882 148.694C368.214 150.202 364.821 150.956 360.703 150.956Z" fill="url(#paint1_linear_14_221)"/>
<path d="M439.959 101C441.316 101 442.658 101.291 443.893 101.854L443.892 101.855L474.409 115.755C475.447 116.203 476.336 116.94 476.969 117.879C477.616 118.839 477.967 119.968 477.979 121.126C477.989 122.085 477.765 123.03 477.331 123.879V142.524C477.331 143.501 476.54 144.292 475.563 144.292C474.587 144.292 473.796 143.501 473.796 142.524V126.897L463.68 131.488V142.524C463.68 146.702 460.418 150.036 456.119 152.186C451.71 154.39 445.896 155.563 439.959 155.563C434.021 155.563 428.208 154.39 423.799 152.186C419.5 150.036 416.238 146.702 416.238 142.524V131.444L405.512 126.554V126.553C404.472 126.09 403.588 125.338 402.965 124.386C402.336 123.423 402 122.297 402 121.147C402 119.997 402.336 118.872 402.965 117.909C403.588 116.956 404.473 116.203 405.513 115.74L436.027 101.854C437.262 101.291 438.603 101 439.959 101ZM420.953 142.524C420.953 144.012 422.193 146.112 425.907 147.969C429.511 149.771 434.565 150.849 439.959 150.849C445.353 150.849 450.407 149.771 454.011 147.969C457.725 146.112 458.965 144.012 458.965 142.524V133.628L443.889 140.47L443.888 140.469C442.654 141.031 441.315 141.323 439.959 141.323C438.771 141.323 437.596 141.1 436.493 140.667L436.025 140.468L420.953 133.595V142.524ZM439.959 105.715C439.277 105.715 438.602 105.861 437.981 106.145L437.979 106.146L407.466 120.031C407.456 120.036 407.446 120.04 407.436 120.045C407.221 120.139 407.039 120.294 406.911 120.489C406.783 120.685 406.715 120.914 406.715 121.147C406.715 121.381 406.783 121.61 406.911 121.806C407.007 121.952 407.134 122.076 407.281 122.168L407.436 122.249L407.468 122.264L437.981 136.179C438.602 136.462 439.277 136.608 439.959 136.608C440.641 136.608 441.315 136.462 441.936 136.179L441.94 136.177L472.525 122.298L472.548 122.287C472.763 122.192 472.946 122.036 473.073 121.839C473.201 121.641 473.268 121.409 473.266 121.174C473.263 120.939 473.191 120.709 473.06 120.514C472.928 120.319 472.742 120.167 472.525 120.076C472.502 120.066 472.477 120.056 472.454 120.045L441.937 106.145H441.936C441.315 105.862 440.641 105.715 439.959 105.715Z" fill="url(#paint2_linear_14_221)"/>
<defs>
<linearGradient id="paint0_linear_14_221" x1="142.5" y1="0" x2="142.5" y2="131" gradientUnits="userSpaceOnUse">
<stop stop-color="#68BDEE"/>
<stop offset="1" stop-color="#0F1624" stop-opacity="0"/>
</linearGradient>
<linearGradient id="paint1_linear_14_221" x1="1" y1="119.347" x2="393" y2="119.347" gradientUnits="userSpaceOnUse">
<stop stop-color="#FAFFB2"/>
<stop offset="1" stop-color="#48A2D6"/>
</linearGradient>
<linearGradient id="paint2_linear_14_221" x1="439.99" y1="101" x2="439.99" y2="155.563" gradientUnits="userSpaceOnUse">
<stop stop-color="#F1FAB4"/>
<stop offset="1" stop-color="#4DA5D5"/>
</linearGradient>
</defs>
</svg>
